# xmcd CD database file
#
# Track frame offsets:
#	150
#	60380
#	110851
#	158176
#	201848
#	234519
#
# Disc length: 3719 seconds
#
# Revision: 0
# Processed by: cddbd v1.5.2PL0 Copyright (c) Steve Scherf et al.
# Submitted via: CDex 1.51
#
DISCID=4d0e8506
DTITLE=Pete Zimmer - Burnin'Live at the Jazz Standard
DYEAR=2006
DGENRE=Jazz
TTITLE0=Woodside Blues
TTITLE1=Getting Dizzy
TTITLE2=Doin'Somethin'
TTITLE3=Brush Pitch
TTITLE4=Waltz For Opp
TTITLE5=A Whole New You
EXTD=YEAR: 2006
EXTT0=
EXTT1=
EXTT2=
EXTT3=
EXTT4=
EXTT5=
PLAYORDER=
